<?xml version="1.0" standalone="no"?>
<!DOCTYPE svg PUBLIC "-//W3C//DTD SVG 20010904//EN"
 "http://www.w3.org/TR/2001/REC-SVG-20010904/DTD/svg10.dtd">
<svg version="1.0" xmlns="http://www.w3.org/2000/svg"
 width="479.000000pt" height="507.000000pt" viewBox="0 0 479.000000 507.000000"
 preserveAspectRatio="xMidYMid meet">

<g transform="translate(0.000000,507.000000) scale(0.100000,-0.100000)"
fill="#000000" stroke="none">
<path d="M2285 4043 c-129 -15 -272 -57 -392 -115 -94 -45 -108 -58 -99 -93
10 -39 46 -42 108 -8 179 99 416 145 617 123 380 -43 696 -262 866 -600 86
-170 113 -300 122 -574 l6 -188 79 -166 c47 -101 78 -178 78 -198 0 -43 -47
-84 -96 -84 -45 0 -107 -32 -132 -67 -35 -50 -42 -101 -42 -322 0 -199 -1
-216 -21 -247 -44 -71 -84 -78 -287 -48 -248 37 -302 29 -351 -57 -16 -28 -21
-54 -21 -108 0 -64 -2 -71 -20 -71 -27 0 -874 78 -927 85 l-43 6 0 83 c0 68
-3 86 -18 99 -49 44 -82 6 -82 -95 l0 -75 -46 -7 c-104 -14 -143 -77 -144
-231 0 -128 21 -178 90 -213 l45 -22 657 2 c648 3 657 3 685 24 52 39 73 81
73 148 0 102 -49 166 -140 181 l-40 7 0 63 c0 53 4 69 24 92 l24 28 194 -28
c227 -33 239 -33 298 -6 56 25 95 62 123 114 20 37 22 59 27 282 6 279 5 275
98 293 73 13 108 34 139 82 22 33 28 52 27 97 -1 49 -11 77 -79 216 l-79 160
-6 200 c-10 277 -38 400 -133 590 -82 165 -216 322 -372 436 -89 65 -246 141
-355 173 -134 38 -326 55 -455 39z m-510 -2833 c55 -6 319 -30 586 -55 267
-24 494 -48 503 -51 41 -16 48 -103 11 -140 l-25 -24 -634 2 c-607 3 -635 4
-655 22 -19 17 -21 30 -21 119 0 148 3 149 235 127z"/>
<path d="M1576 4008 c-9 -12 -16 -43 -16 -68 0 -25 7 -56 16 -68 17 -24 53
-29 72 -10 15 15 16 122 2 149 -14 26 -55 24 -74 -3z"/>
<path d="M922 3748 c-25 -25 -13 -64 33 -107 48 -44 56 -47 86 -31 34 19 24
59 -26 107 -46 44 -72 52 -93 31z"/>
<path d="M2206 3711 c-41 -41 -48 -54 -42 -75 4 -16 16 -28 32 -32 21 -6 34 1
75 42 53 52 59 72 31 97 -29 26 -44 21 -96 -32z"/>
<path d="M1485 3740 c-125 -23 -247 -84 -343 -174 -229 -214 -295 -544 -162
-820 16 -34 61 -104 100 -156 74 -98 125 -189 154 -273 16 -47 15 -50 -4 -74
-18 -23 -20 -40 -20 -183 l0 -157 40 -37 c22 -20 40 -45 40 -54 0 -37 58 -111
112 -141 53 -31 53 -31 211 -31 175 0 208 8 265 63 38 36 72 96 72 126 0 11 9
25 20 31 43 23 52 62 48 215 -3 133 -5 145 -26 168 -21 22 -21 26 -8 63 36
103 94 205 174 303 168 209 200 507 82 747 -117 238 -337 381 -600 389 -58 2
-127 0 -155 -5z m214 -91 c138 -22 245 -76 339 -171 122 -123 176 -256 177
-433 0 -159 -34 -249 -155 -410 -71 -94 -136 -213 -165 -302 l-17 -53 -267 0
-267 0 -18 58 c-24 75 -74 172 -131 252 -160 227 -185 289 -185 454 0 167 50
299 160 419 90 99 197 157 335 182 89 17 115 17 194 4z m221 -1584 l0 -125
-310 0 -310 0 0 118 c0 65 3 122 7 125 3 4 143 7 310 7 l303 0 0 -125z m-77
-256 c-39 -68 -58 -74 -226 -74 -136 0 -155 2 -179 20 -24 18 -58 64 -58 79 0
3 108 6 241 6 l241 0 -19 -31z"/>
<path d="M1519 3461 c-16 -16 -32 -44 -35 -61 -4 -17 -9 -29 -13 -27 -41 23
-88 37 -105 33 -79 -21 -134 -102 -115 -169 5 -20 14 -39 19 -42 19 -12 10
-23 -24 -29 -21 -4 -45 -19 -60 -37 -22 -25 -26 -41 -26 -91 0 -55 3 -63 34
-94 21 -21 44 -34 60 -34 31 0 31 3 6 -52 -15 -36 -18 -52 -10 -78 11 -40 51
-84 91 -100 34 -14 92 -6 109 15 19 23 27 18 34 -18 3 -19 20 -47 37 -63 26
-25 38 -29 87 -28 83 0 108 20 136 107 5 16 7 16 38 -3 55 -33 104 -22 161 38
38 40 45 91 18 137 -19 33 -19 36 -3 41 80 25 112 63 112 135 0 66 -56 129
-114 129 -20 0 -21 14 -1 30 21 18 29 76 15 110 -16 39 -71 86 -110 95 -22 5
-42 1 -71 -14 -50 -26 -49 -26 -49 5 0 16 -13 39 -34 60 -31 31 -39 34 -96 34
-55 0 -65 -3 -91 -29z m133 -101 c18 -72 100 -103 168 -63 24 14 31 14 44 4
20 -17 20 -30 0 -70 -19 -38 -13 -94 12 -122 10 -11 34 -24 56 -29 33 -9 38
-14 38 -41 0 -19 -6 -32 -17 -35 -57 -19 -75 -30 -88 -55 -20 -37 -19 -74 1
-109 30 -50 -6 -86 -56 -56 -35 20 -72 21 -109 1 -25 -13 -36 -31 -55 -87 -3
-12 -16 -18 -34 -18 -25 0 -30 5 -41 39 -6 22 -23 49 -38 60 -31 25 -89 27
-122 5 -19 -14 -27 -14 -47 -4 -28 16 -29 23 -8 55 22 34 20 92 -4 124 -17 23
-36 33 -89 47 -7 2 -13 17 -13 33 0 27 5 32 38 41 74 19 103 82 70 150 l-21
42 22 21 c20 21 22 21 50 4 66 -39 140 -10 162 64 11 36 15 40 43 37 25 -3 31
-9 38 -38z"/>
<path d="M1545 3186 c-41 -18 -83 -69 -91 -111 -10 -57 4 -104 45 -148 34 -36
44 -41 93 -45 69 -5 119 16 154 67 29 43 32 115 8 167 -33 69 -134 103 -209
70z m109 -97 c16 -13 26 -30 26 -47 0 -33 -36 -72 -67 -72 -30 0 -73 42 -73
70 0 26 43 70 68 70 11 0 31 -9 46 -21z"/>
<path d="M645 3080 c-15 -17 -16 -24 -7 -45 11 -23 16 -25 86 -25 66 0 77 3
86 21 9 16 8 26 -5 45 -14 21 -23 24 -79 24 -50 0 -67 -4 -81 -20z"/>
<path d="M2428 3089 c-21 -12 -24 -49 -6 -67 16 -16 140 -16 156 0 18 18 14
56 -7 68 -25 13 -121 13 -143 -1z"/>
<path d="M951 2456 c-34 -34 -42 -49 -39 -72 2 -24 8 -30 32 -32 23 -3 38 5
72 39 44 43 54 75 32 97 -22 22 -54 12 -97 -32z"/>
<path d="M2172 2488 c-20 -20 -13 -46 24 -88 41 -45 65 -56 94 -40 33 17 25
56 -20 101 -40 40 -75 50 -98 27z"/>
</g>
</svg>
